<?xml version="1.0" standalone="no"?>
<!DOCTYPE svg PUBLIC "-//W3C//DTD SVG 20010904//EN"
 "http://www.w3.org/TR/2001/REC-SVG-20010904/DTD/svg10.dtd">
<svg version="1.0" xmlns="http://www.w3.org/2000/svg"
 width="300.000000pt" height="300.000000pt" viewBox="0 0 300.000000 300.000000"
 preserveAspectRatio="xMidYMid meet">
<metadata>
Created by potrace 1.14, written by Peter Selinger 2001-2017
</metadata>
<g transform="translate(0.000000,300.000000) scale(0.100000,-0.100000)"
fill="#000000" stroke="none">
<path d="M385 2908 c-3 -7 -4 -472 -3 -1033 l3 -1020 168 -3 167 -2 -2 -178
-3 -177 -132 -3 -132 -3 -3 108 -3 108 -30 0 -30 0 -3 -129 c-2 -83 1 -133 8
-140 7 -7 69 -11 168 -11 l157 0 3 -132 c2 -122 1 -133 -15 -134 -10 -1 -81
-2 -158 -4 -77 -1 -146 -3 -152 -4 -7 0 -13 -14 -13 -31 0 -22 5 -31 23 -35
12 -3 515 -4 1117 -3 l1095 3 0 1030 0 1030 -167 3 -168 2 0 180 0 180 135 0
135 0 0 -97 c0 -54 4 -104 9 -111 4 -8 19 -12 32 -10 24 3 24 5 27 132 2 83
-1 133 -8 140 -7 7 -69 11 -168 11 l-157 0 0 135 0 135 156 1 c85 0 161 4 167
8 22 13 14 53 -11 60 -13 3 -514 6 -1115 6 -872 0 -1093 -2 -1097 -12z m323
-67 c10 -1 12 -105 12 -496 l-1 -495 -134 0 -135 0 0 493 c0 272 2 496 4 498
4 4 214 4 254 0z m1497 -3 c10 -10 6 -251 -5 -258 -4 -3 -323 -5 -707 -4
l-698 0 -3 129 c-1 72 1 131 7 134 13 9 1398 7 1406 -1z m5 -530 c0 -112 4
-209 9 -217 7 -10 43 -13 170 -12 l161 1 0 -430 0 -430 -135 0 -135 0 0 340
c0 311 -1 340 -17 349 -11 6 -24 6 -35 0 -17 -9 -18 -50 -18 -714 l0 -705
-707 2 -708 3 -5 207 c-3 113 -8 210 -12 214 -4 4 -80 7 -168 7 l-160 -1 -1
252 c-1 259 -1 558 0 589 1 15 14 17 136 17 l135 0 0 -340 c0 -315 1 -340 18
-349 11 -6 24 -6 35 0 16 9 17 58 17 714 l0 705 710 0 710 0 0 -202z m338
-1655 l-3 -498 -123 0 c-68 0 -128 3 -133 6 -10 6 -11 49 -10 617 l1 372 135
0 135 0 -2 -497z m-338 -359 c0 -97 -3 -133 -12 -136 -10 -3 -1368 -2 -1400 1
-12 1 -10 259 2 263 6 2 325 3 710 4 l700 0 0 -132z"/>
<path d="M1042 1663 l3 -438 50 -1 c28 -1 55 -2 61 -3 8 -1 11 -24 11 -65 l-1
-64 -43 -4 c-62 -5 -69 1 -68 50 0 23 -3 42 -7 42 -4 0 -8 -29 -8 -64 l0 -63
48 -1 c85 0 80 3 79 -54 l-2 -53 -60 -1 c-53 -1 -60 -3 -63 -23 l-3 -21 465 0
466 0 0 244 0 243 -92 -1 -93 -1 0 -142 c-1 -78 -3 -144 -6 -147 -7 -7 -579
-9 -586 -2 -3 3 0 12 7 21 7 8 8 15 3 15 -6 0 -8 15 -4 38 4 20 2 51 -4 67
-10 29 -12 31 -65 29 -30 0 -59 1 -65 3 -11 4 -14 761 -3 778 3 6 28 10 55 10
l48 -1 1 -357 c0 -259 4 -361 12 -369 13 -13 14 -11 16 52 1 19 5 40 9 46 3 6
3 14 0 18 -12 11 -10 146 1 146 6 0 5 4 -2 9 -19 11 -19 15 -3 34 7 10 9 17 4
17 -6 0 -8 17 -6 38 2 20 4 42 3 47 0 6 -1 38 -3 73 -2 34 1 62 6 62 6 0 6 5
1 13 -5 6 -8 26 -7 42 4 41 3 75 -5 158 -2 14 -13 17 -77 17 l-75 0 2 -437z
m873 -345 c-1 -16 3 -28 7 -28 4 0 3 -11 -2 -25 -5 -14 -5 -27 0 -30 5 -3 5
-18 0 -35 -5 -18 -5 -30 0 -30 6 0 6 -10 0 -25 -5 -14 -5 -27 0 -30 5 -3 5
-18 1 -33 -5 -15 -4 -37 0 -50 5 -12 5 -22 1 -22 -5 0 -6 -15 -4 -33 l4 -34
-364 0 -364 1 1 54 0 55 308 0 307 0 0 149 0 149 53 -3 c49 -3 52 -4 52 -30z"/>
</g>
</svg>
